<?xml version="1.0" encoding="UTF-8"?>
<!DOCTYPE svg PUBLIC "-//W3C//DTD SVG 1.1//EN" "http://www.w3.org/Graphics/SVG/1.1/DTD/svg11.dtd">
<!-- Creator: CorelDRAW 2020 (64-Bit) -->
<svg xmlns="http://www.w3.org/2000/svg" xml:space="preserve" width="200mm" height="57.82mm" version="1.1" style="shape-rendering:geometricPrecision; text-rendering:geometricPrecision; image-rendering:optimizeQuality; fill-rule:evenodd; clip-rule:evenodd"
viewBox="0 0 19998.54 5781.58"
 xmlns:xlink="http://www.w3.org/1999/xlink"
 xmlns:xodm="http://www.corel.com/coreldraw/odm/2003">
 <defs>
  <style type="text/css">
   <![CDATA[
    .fil0 {fill:black;fill-rule:nonzero}
    .fil1 {fill:url(#id0)}
   ]]>
  </style>
  <linearGradient id="id0" gradientUnits="userSpaceOnUse" x1="8484.68" y1="2957.54" x2="11586.75" y2="2957.54">
   <stop offset="0" style="stop-opacity:1; stop-color:#9900CC"/>
   <stop offset="0.541176" style="stop-opacity:1; stop-color:#CC0066"/>
   <stop offset="1" style="stop-opacity:1; stop-color:red"/>
  </linearGradient>
 </defs>
 <g id="Слой_x0020_1">
  <metadata id="CorelCorpID_0Corel-Layer"/>
  <g id="_990516064">
   <path class="fil0" d="M5740.73 4308.99l-907.04 0 447.85 -1043.1 459.2 1043.1zm561.23 1366.24l992.09 0 0 -147.4 -1791.42 -3871.96 -436.51 0 -1785.75 3871.96 0 147.4 992.08 0 232.43 -498.87 1564.66 0 232.42 498.87z"/>
   <polygon class="fil1" points="10027.47,150.08 11710.37,3993.02 11628.35,4033.55 8380.28,5689.45 8291.13,5618.7 9963.65,1792.58 9963.65,1759.93 9087.5,1759.93 9088.42,1670.1 9927.64,28.39 "/>
   <path class="fil0" d="M17770.59 2820.35c-345.8,0 -640.6,0 -980.74,0 -22.68,1746.07 3208.68,1717.72 3208.68,51.02 0,-992.08 -770.98,-1111.13 -1559,-1196.16 -357.13,-39.68 -651.93,-102.04 -629.25,-402.5 34.01,-470.54 1099.79,-515.88 1099.79,11.33 345.81,0 606.59,0 963.74,0 22.68,-1712.05 -3061.29,-1712.05 -3027.27,0 11.34,861.7 578.25,1156.5 1439.93,1218.85 396.84,22.68 725.65,85.03 725.65,362.82 0,464.86 -1241.53,459.19 -1241.53,-45.36z"/>
   <path class="fil0" d="M15163.09 2667.29l-907.05 0 447.86 -1043.09 459.2 1043.09zm561.23 1366.24l992.09 0 0 -147.39 -1791.42 -3871.96 -436.52 0 -1785.75 3871.96 0 147.39 992.09 0 232.42 -498.87 1564.66 0 232.43 498.87z"/>
   <polygon class="fil0" points="10902.71,28.39 9927.64,28.39 9927.64,181.13 11628.35,4033.55 12059.2,4033.55 13742.91,181.13 13742.91,28.39 12767.83,28.39 11860.78,2268.56 11832.44,2268.56 "/>
   <path class="fil0" d="M980.87 4476.25c-345.81,0 -640.6,0 -980.75,0 -22.67,1746.07 3208.69,1717.72 3208.69,51.03 0,-992.09 -770.99,-1111.14 -1559,-1196.17 -357.14,-39.68 -651.93,-102.04 -629.26,-402.5 34.02,-470.53 1099.8,-515.88 1099.8,11.34 345.81,0 606.59,0 963.74,0 22.68,-1712.06 -3061.29,-1712.06 -3027.27,0 11.34,861.7 578.24,1156.49 1439.93,1218.84 396.84,22.68 725.65,85.04 725.65,362.82 0,464.86 -1241.53,459.2 -1241.53,-45.36z"/>
   <polygon class="fil0" points="7223.3,1670.1 6248.22,1670.1 6248.22,1823.38 7948.93,5689.45 8379.79,5689.45 10063.5,1823.38 10063.5,1670.1 9088.42,1670.1 8181.37,3918.21 8153.02,3918.21 "/>
   <path class="fil0" d="M12289.04 5273.46c0,-575.7 -854.05,-575.7 -854.05,0 0,576.89 854.05,576.89 854.05,0zm-635.17 0c0,-299.75 417.5,-299.75 417.5,0 0,302.13 -417.5,302.13 -417.5,0zm1160.92 61.86c116.56,0 117.75,162.95 0,162.95 -49.96,0 -103.49,0 -152.25,0l0 -162.95 152.25 0zm-152.25 -187.95l0 -101.1 385.38 0 0 -190.32 -598.31 0 0 832.63 366.36 0c398.46,-1.19 398.46,-541.21 0,-541.21l-153.44 0zm1016.99 148.69c116.57,0 123.7,201.02 0,202.21 -49.96,1.19 -103.48,0 -152.25,0l0 -202.21 152.25 0zm-490.05 -440.11l0 190.32 124.89 0 0 642.31 366.35 0c398.47,-1.19 398.47,-584.03 0,-584.03l-153.44 0 0 -248.6 -337.81 0zm868.31 801.7l0 30.93 237.89 0 142.74 -245.03 110.61 0 0 245.03c71.37,0 143.93,0 212.91,0 0,-277.14 0,-554.29 0,-832.63 -120.13,0 -243.84,0 -365.16,0 -327.1,1.19 -386.57,394.9 -176.04,537.64l-162.96 264.06zm339 -405.61c-115.38,0 -121.32,-204.59 0,-205.77 49.96,-1.19 102.29,0 152.25,0 0,67.81 0,139.17 0,205.77l-152.25 0zm1191.85 -140.35c0,-143.93 -115.38,-255.74 -259.31,-255.74l-355.64 0 0 832.63 390.14 0c170.09,0 258.11,-117.75 259.3,-262.87 0,-73.74 -32.12,-135.6 -99.91,-170.1 40.44,-33.3 65.43,-93.96 65.43,-143.92zm-240.27 246.22c85.63,0 86.82,141.54 1.19,141.54l-170.1 0 0 -141.54 168.91 0zm-35.69 -311.65c85.63,0 85.63,134.41 1.19,134.41l-134.41 0 0 -134.41 133.22 0zm792.18 154.64l214.1 487.67 208.15 0 0 -30.93 -375.86 -812.4 -91.59 0 -374.68 812.4 0 30.93 208.15 0 211.72 -487.67zm1051.49 -344.95c-195.08,0 -327.11,0 -519.8,0 0,275.96 0,554.3 0,832.63 192.7,0 335.43,0 530.5,0 0,-63.05 0,-127.27 0,-189.13 -124.89,0 -196.27,0 -318.78,0 0,-49.96 0,-97.53 0,-146.3l283.1 0c0,-63.05 0,-126.08 0,-189.13l-283.1 0 0 -117.76c122.51,0 184.37,0 308.08,0 0,-64.23 0,-128.46 0,-190.32zm887.34 0c-72.55,0 -145.11,0 -217.66,0l0 302.13 -256.93 0 0 -302.13c-72.55,0 -146.3,0 -217.67,0l0 832.63c71.37,0 145.12,0 217.67,0l0 -334.24 256.93 0 0 334.24c72.55,0 145.11,0 217.66,0l0 -832.63zm710.11 423.46l0 409.17c73.75,0 147.5,0 220.06,0l0 -836.2 -77.32 0 -421.07 410.97 0 -407.4c-72.55,0 -145.11,0 -217.67,0l0 832.63 76.13 0 419.87 -409.17zm350.89 378.24l0 30.93 237.89 0 142.74 -245.03 110.62 0 0 245.03c71.36,0 143.93,0 212.91,0 0,-277.14 0,-554.29 0,-832.63 -120.14,0 -243.84,0 -365.16,0 -327.11,1.19 -386.58,394.9 -176.05,537.64l-162.96 264.06zm339.01 -405.61c-115.38,0 -121.33,-204.59 0,-205.77 49.96,-1.19 102.29,0 152.25,0 0,67.81 0,139.17 0,205.77l-152.25 0z"/>
  </g>
 </g>
</svg>
